<?xml version="1.0" encoding="UTF-8"?>
<svg id="Capa_2" data-name="Capa 2" xmlns="http://www.w3.org/2000/svg" viewBox="0 0 125 77.92">
  <defs>
    <style>
      .cls-1 {
        fill: #c6c6c6;
      }
    </style>
  </defs>
  <g id="Capa_1-2" data-name="Capa 1">
    <path class="cls-1" d="M7.98,0h1.85l7.98,17.62h-2.12l-2.05-4.62H4.1l-2.08,4.62H0L7.98,0ZM12.85,11.23l-3.98-8.93-4,8.93h7.98Z"/>
    <path class="cls-1" d="M20,.12h2l6.38,9.55L34.75.12h2v17.5h-1.98V3.45l-6.38,9.38h-.1l-6.38-9.35v14.15h-1.92V.12Z"/>
    <path class="cls-1" d="M40.45.12h7.44c1,0,1.88.14,2.66.41.77.28,1.41.66,1.91,1.14.75.79,1.12,1.72,1.12,2.81v.05c0,.57-.08,1.07-.24,1.52-.16.44-.37.83-.64,1.15s-.56.6-.89.83-.66.41-1.01.56c.52.15,1,.35,1.46.59.46.24.85.53,1.19.86.33.33.6.73.8,1.19s.3.99.3,1.58v.05c0,.75-.15,1.42-.45,2.01-.3.59-.73,1.09-1.29,1.5-.56.41-1.23.72-2.01.94-.78.22-1.65.32-2.6.32h-7.76V.12ZM47.59,7.95c1.2,0,2.16-.26,2.9-.79s1.11-1.31,1.11-2.35v-.05c0-.87-.33-1.56-1-2.08-.67-.52-1.62-.78-2.87-.78h-5.31v6.05h5.16ZM48.29,15.85c1.33,0,2.38-.27,3.14-.83.77-.55,1.15-1.32,1.15-2.3v-.05c0-.95-.39-1.69-1.17-2.21s-1.94-.79-3.47-.79h-5.51v6.18h5.86Z"/>
    <path class="cls-1" d="M57.42.12h1.98v17.5h-1.98V.12Z"/>
    <path class="cls-1" d="M63.27.12h12.65v1.83h-10.67v5.92h9.55v1.83h-9.55v6.1h10.8v1.83h-12.77V.12Z"/>
    <path class="cls-1" d="M78.77.12h1.85l11.02,14.02V.12h1.92v17.5h-1.57l-11.3-14.35v14.35h-1.92V.12Z"/>
    <path class="cls-1" d="M101.9,1.95h-5.88V.12h13.73v1.83h-5.88v15.67h-1.98V1.95Z"/>
    <path class="cls-1" d="M112.22.12h12.65v1.83h-10.67v5.92h9.55v1.83h-9.55v6.1h10.8v1.83h-12.77V.12Z"/>
    <path class="cls-1" d="M7.98,30h1.85l7.98,17.62h-2.12l-2.05-4.62H4.1l-2.08,4.62H0l7.98-17.62ZM12.85,41.23l-3.98-8.93-4,8.93h7.98Z"/>
    <path class="cls-1" d="M20,30.12h7.52c1.08,0,2.05.15,2.89.46.84.31,1.54.74,2.09,1.29.43.43.77.94,1,1.52.23.58.35,1.23.35,1.93v.05c0,.72-.12,1.36-.35,1.94-.23.58-.56,1.08-.99,1.5-.42.42-.93.77-1.51,1.05-.58.28-1.22.48-1.9.61l5.38,7.15h-2.43l-5.07-6.8h-5v6.8h-1.98v-17.5ZM27.36,39.05c.65,0,1.25-.08,1.8-.25.55-.17,1.03-.4,1.43-.71.4-.31.71-.68.94-1.12.23-.44.34-.95.34-1.51v-.05c0-1.08-.39-1.93-1.18-2.54-.79-.61-1.89-.91-3.31-.91h-5.41v7.1h5.39Z"/>
    <path class="cls-1" d="M41.27,31.95h-5.88v-1.83h13.73v1.83h-5.88v15.67h-1.98v-15.67Z"/>
    <path class="cls-1" d="M51.6,30.12h12.65v1.83h-10.67v5.92h9.55v1.83h-9.55v6.1h10.8v1.83h-12.77v-17.5Z"/>
    <path class="cls-1" d="M1.5,60.12h6.07c1.38,0,2.64.22,3.78.66,1.13.44,2.11,1.05,2.94,1.84.82.78,1.46,1.7,1.91,2.76.45,1.06.68,2.2.68,3.44v.05c0,1.23-.23,2.38-.68,3.45-.45,1.07-1.09,1.99-1.91,2.77-.83.78-1.8,1.4-2.94,1.85-1.13.45-2.39.67-3.78.67H1.5v-17.5ZM7.57,75.8c1.1,0,2.1-.17,3-.52.9-.35,1.66-.83,2.29-1.45s1.11-1.35,1.45-2.19c.34-.84.51-1.75.51-2.71v-.05c0-.97-.17-1.87-.51-2.71-.34-.84-.83-1.58-1.45-2.2s-1.39-1.12-2.29-1.48c-.9-.36-1.9-.54-3-.54H3.48v13.85h4.1Z"/>
    <path class="cls-1" d="M19.97,60.12h1.98v17.5h-1.98v-17.5Z"/>
    <path class="cls-1" d="M31.85,77.88c-1.4,0-2.68-.23-3.84-.69-1.16-.46-2.26-1.16-3.31-2.11l1.23-1.45c.92.83,1.84,1.45,2.77,1.86.93.41,2.01.61,3.23.61s2.13-.28,2.84-.84c.71-.56,1.06-1.27,1.06-2.14v-.05c0-.4-.07-.76-.2-1.09-.13-.32-.37-.62-.7-.89s-.8-.51-1.39-.73c-.59-.22-1.35-.42-2.27-.62-1-.22-1.88-.47-2.62-.75-.74-.28-1.36-.62-1.84-1.02s-.84-.87-1.08-1.4c-.23-.53-.35-1.16-.35-1.88v-.05c0-.68.14-1.32.43-1.9.28-.58.68-1.09,1.2-1.51.52-.42,1.12-.76,1.83-1,.7-.24,1.47-.36,2.3-.36,1.28,0,2.4.18,3.36.54.96.36,1.89.9,2.79,1.61l-1.15,1.52c-.82-.67-1.64-1.15-2.46-1.45-.83-.3-1.69-.45-2.59-.45-1.15,0-2.06.27-2.73.81-.67.54-1,1.21-1,2.01v.05c0,.42.07.79.2,1.11.13.32.38.62.72.9.35.27.83.52,1.45.75.62.23,1.41.44,2.38.64,1.95.42,3.39,1.01,4.31,1.79s1.39,1.83,1.39,3.16v.05c0,.75-.15,1.43-.44,2.04-.3.61-.7,1.13-1.23,1.56-.52.43-1.15.77-1.88,1-.73.23-1.53.35-2.4.35Z"/>
    <path class="cls-1" d="M40.57,60.12h12.65v1.83h-10.67v5.92h9.55v1.83h-9.55v6.1h10.8v1.83h-12.77v-17.5Z"/>
    <path class="cls-1" d="M56.07,60.12h1.85l11.02,14.02v-14.02h1.92v17.5h-1.57l-11.3-14.35v14.35h-1.92v-17.5ZM59.37,58.48c.25-.95.56-1.62.93-2.02.37-.4.85-.6,1.45-.6.28,0,.58.05.88.15.3.1.6.21.9.34.3.12.58.24.85.35s.51.16.73.16c.33,0,.59-.09.76-.27.17-.18.35-.5.54-.95l1.18.33c-.25.95-.56,1.62-.93,2.02s-.85.6-1.45.6c-.28,0-.58-.05-.88-.16-.3-.11-.6-.23-.9-.35-.3-.12-.58-.24-.85-.34-.27-.1-.51-.15-.73-.15-.33,0-.59.09-.76.27-.17.18-.35.5-.54.95l-1.18-.32Z"/>
    <path class="cls-1" d="M82.7,77.92c-1.33,0-2.55-.24-3.64-.72-1.09-.48-2.03-1.14-2.81-1.96-.78-.82-1.39-1.78-1.81-2.88-.42-1.09-.64-2.24-.64-3.44v-.05c0-1.2.22-2.35.65-3.45.43-1.1,1.04-2.06,1.82-2.89.78-.83,1.73-1.48,2.83-1.98,1.1-.49,2.32-.74,3.65-.74s2.55.24,3.64.72c1.09.48,2.03,1.14,2.81,1.96.78.82,1.39,1.78,1.81,2.88.42,1.09.64,2.24.64,3.44.02.02.02.03,0,.05,0,1.2-.22,2.35-.65,3.45-.43,1.1-1.04,2.06-1.82,2.89-.78.83-1.73,1.48-2.83,1.98s-2.32.74-3.65.74ZM82.75,76.1c1,0,1.92-.19,2.76-.56.84-.38,1.56-.89,2.16-1.54.6-.65,1.07-1.41,1.41-2.27s.51-1.8.51-2.8v-.05c0-1-.17-1.94-.51-2.81s-.82-1.64-1.44-2.29-1.35-1.17-2.19-1.55-1.76-.58-2.76-.58-1.92.19-2.76.56c-.84.38-1.56.89-2.16,1.54-.6.65-1.07,1.41-1.41,2.27-.34.87-.51,1.8-.51,2.8v.05c0,1,.17,1.94.51,2.81.34.88.82,1.64,1.44,2.29.62.65,1.35,1.17,2.19,1.55.84.38,1.76.58,2.76.58Z"/>
  </g>
</svg>