<?xml version="1.0" encoding="UTF-8"?>
<svg id="Capa_2" data-name="Capa 2" xmlns="http://www.w3.org/2000/svg" viewBox="0 0 12.6 12.1">
  <defs>
    <style>
      .cls-1 {
        fill: #b3b3b3;
      }
    </style>
  </defs>
  <g id="Capa_1-2" data-name="Capa 1">
    <path class="cls-1" d="M6.3,0h0s0,0,0,0h0s0,0,0,0C5.68.62,1.46,4.83,0,6.29c.38.38.8.8,1.3,1.3,1.03-1.03,3.76-3.77,4.08-4.08,0,7.29,0,1.32,0,8.59.32,0,1.55,0,1.86,0,0-7.27,0-1.3,0-8.59.31.31,3.05,3.05,4.08,4.08.5-.5.91-.91,1.3-1.3C11.14,4.83,6.92.62,6.3,0Z"/>
  </g>
</svg>