<?xml version="1.0" encoding="UTF-8"?>
<svg id="Capa_2" data-name="Capa 2" xmlns="http://www.w3.org/2000/svg" viewBox="0 0 147.99 18.1">
  <defs>
    <style>
      .cls-1 {
        fill: #9c9fae;
      }
    </style>
  </defs>
  <g id="Capa_1-2" data-name="Capa 1">
    <g>
      <path class="cls-1" d="M5.88,2.12H0V.3h13.75v1.82h-5.88v15.67h-2V2.12Z"/>
      <path class="cls-1" d="M16.13.3h7.52c2.15,0,3.88.65,4.97,1.75.85.85,1.35,2.07,1.35,3.45v.05c0,2.9-2,4.6-4.75,5.1l5.37,7.15h-2.42l-5.07-6.8h-5v6.8h-1.97V.3ZM23.48,9.22c2.62,0,4.5-1.35,4.5-3.6v-.05c0-2.15-1.65-3.45-4.47-3.45h-5.4v7.1h5.37Z"/>
      <path class="cls-1" d="M33.41.3h1.97v17.5h-1.97V.3Z"/>
      <path class="cls-1" d="M39,.3h1.97v15.67h9.85v1.82h-11.82V.3Z"/>
      <path class="cls-1" d="M50.66,9.1v-.05c0-4.82,3.62-9.05,8.95-9.05s8.9,4.17,8.9,9v.05c0,4.82-3.62,9.05-8.95,9.05s-8.9-4.17-8.9-9ZM66.46,9.1v-.05c0-3.97-2.9-7.22-6.9-7.22s-6.85,3.2-6.85,7.17v.05c0,3.97,2.9,7.22,6.9,7.22s6.85-3.2,6.85-7.17Z"/>
      <path class="cls-1" d="M70.66,9.1v-.05c0-4.8,3.53-9.05,8.77-9.05,2.95,0,4.77.85,6.52,2.32l-1.28,1.5c-1.35-1.17-2.85-2-5.32-2-3.88,0-6.65,3.27-6.65,7.17v.05c0,4.17,2.67,7.27,6.92,7.27,2,0,3.85-.78,5.05-1.75v-4.35h-5.32v-1.77h7.22v6.97c-1.62,1.45-4.07,2.67-7.02,2.67-5.5,0-8.9-4-8.9-9Z"/>
      <path class="cls-1" d="M89.96.3h1.97v17.5h-1.97V.3Z"/>
      <path class="cls-1" d="M112.73,8.1v1.85l-17.62,7.97v-2.12l4.62-2.05V4.23l-4.62-2.07V.13l17.62,7.97ZM101.51,12.98l8.92-3.97-8.92-4v7.97Z"/>
      <path class="cls-1" d="M112.73,2.15V.13l17.62,7.97v1.85l-17.62,7.97v-2.12l15.32-6.8-15.32-6.85Z"/>
      <path class="cls-1" d="M130.36,2.15V.13l17.62,7.97v1.85l-17.62,7.97v-2.12l15.32-6.8-15.32-6.85Z"/>
    </g>
  </g>
</svg>