<?xml version="1.0" encoding="UTF-8"?>
<svg id="Capa_2" data-name="Capa 2" xmlns="http://www.w3.org/2000/svg" viewBox="0 0 170.96 18.1">
  <defs>
    <style>
      .cls-1 {
        fill: #9c9fae;
      }
    </style>
  </defs>
  <g id="Capa_1-2" data-name="Capa 1">
    <path class="cls-1" d="M0,.3h12.57v1.83H1.98v6.22h9.47v1.83H1.98v7.62H0V.3Z"/>
    <path class="cls-1" d="M19.62.17h1.85l7.98,17.62h-2.12l-2.05-4.62h-9.52l-2.08,4.62h-2.02L19.62.17ZM24.5,11.4l-3.98-8.93-4,8.93h7.98Z"/>
    <path class="cls-1" d="M31.65.3h7.44c1,0,1.88.14,2.66.41.77.28,1.41.66,1.91,1.14.75.79,1.12,1.72,1.12,2.81v.05c0,.57-.08,1.07-.24,1.52s-.37.83-.64,1.15c-.27.33-.56.6-.89.83s-.66.41-1.01.56c.52.15,1,.35,1.46.59.46.24.85.53,1.19.86.33.33.6.73.8,1.19.2.46.3.99.3,1.58v.05c0,.75-.15,1.42-.45,2.01-.3.59-.73,1.09-1.29,1.5-.56.41-1.23.72-2.01.94-.78.22-1.65.32-2.6.32h-7.76V.3ZM38.79,8.12c1.2,0,2.16-.26,2.9-.79s1.11-1.31,1.11-2.35v-.05c0-.87-.33-1.56-1-2.08-.67-.52-1.62-.78-2.87-.78h-5.31v6.05h5.16ZM39.49,16.03c1.33,0,2.38-.28,3.14-.83.77-.55,1.15-1.32,1.15-2.3v-.05c0-.95-.39-1.69-1.17-2.21-.78-.53-1.94-.79-3.47-.79h-5.51v6.18h5.86Z"/>
    <path class="cls-1" d="M48.62.3h1.98v17.5h-1.98V.3Z"/>
    <path class="cls-1" d="M60.95.17h1.85l7.98,17.62h-2.12l-2.05-4.62h-9.52l-2.08,4.62h-2.02L60.95.17ZM65.82,11.4l-3.98-8.93-4,8.93h7.98Z"/>
    <path class="cls-1" d="M72.97.3h1.85l11.02,14.03V.3h1.92v17.5h-1.57l-11.3-14.35v14.35h-1.92V.3Z"/>
    <path class="cls-1" d="M102.35,2.12h-5.88V.3h13.73v1.83h-5.88v15.67h-1.98V2.12Z"/>
    <path class="cls-1" d="M112.67.3h7.52c1.08,0,2.05.15,2.89.46.84.31,1.54.74,2.09,1.29.43.43.77.94,1,1.53.23.58.35,1.22.35,1.92v.05c0,.72-.12,1.36-.35,1.94-.23.58-.56,1.08-.99,1.5-.42.42-.93.78-1.51,1.05-.58.28-1.22.48-1.9.61l5.38,7.15h-2.43l-5.07-6.8h-5v6.8h-1.98V.3ZM120.04,9.22c.65,0,1.25-.08,1.8-.25.55-.17,1.03-.4,1.43-.71s.71-.68.94-1.12.34-.95.34-1.51v-.05c0-1.08-.39-1.93-1.18-2.54-.79-.61-1.89-.91-3.31-.91h-5.41v7.1h5.39Z"/>
    <path class="cls-1" d="M129.67.3h1.98v17.5h-1.98V.3Z"/>
    <path class="cls-1" d="M143.65,18.1c-1.37,0-2.6-.23-3.7-.7-1.1-.47-2.04-1.11-2.81-1.93-.77-.82-1.37-1.77-1.77-2.86-.41-1.09-.61-2.26-.61-3.51v-.05c0-1.2.21-2.35.64-3.44.43-1.09,1.02-2.05,1.79-2.89.77-.83,1.69-1.5,2.76-1.99,1.07-.49,2.27-.74,3.59-.74.73,0,1.4.05,2.01.15.61.1,1.18.25,1.7.45.52.2,1.02.45,1.48.74.46.29.9.62,1.34.99l-1.27,1.5c-.67-.58-1.41-1.06-2.24-1.44-.82-.38-1.85-.56-3.09-.56-.97,0-1.86.19-2.67.58-.82.38-1.52.9-2.1,1.55-.58.65-1.04,1.41-1.38,2.27-.33.87-.5,1.79-.5,2.78v.05c0,1.05.16,2.02.49,2.9.33.88.79,1.65,1.39,2.3s1.33,1.16,2.17,1.53c.85.37,1.81.55,2.88.55,1,0,1.94-.17,2.83-.51.88-.34,1.62-.75,2.23-1.24v-4.35h-5.33v-1.77h7.23v6.97c-.82.73-1.82,1.36-3.01,1.89s-2.53.79-4.01.79Z"/>
    <path class="cls-1" d="M162,18.1c-1.33,0-2.55-.24-3.64-.72-1.09-.48-2.03-1.14-2.81-1.96-.78-.82-1.39-1.78-1.81-2.88-.42-1.09-.64-2.24-.64-3.44v-.05c0-1.2.22-2.35.65-3.45.43-1.1,1.04-2.06,1.82-2.89.78-.83,1.73-1.48,2.83-1.98,1.1-.49,2.32-.74,3.65-.74s2.55.24,3.64.72c1.09.48,2.03,1.14,2.81,1.96.78.83,1.39,1.78,1.81,2.88.42,1.09.64,2.24.64,3.44.02.02.02.03,0,.05,0,1.2-.22,2.35-.65,3.45-.43,1.1-1.04,2.06-1.82,2.89-.78.83-1.73,1.48-2.83,1.97s-2.32.74-3.65.74ZM162.05,16.28c1,0,1.92-.19,2.76-.56.84-.38,1.56-.89,2.16-1.54.6-.65,1.07-1.41,1.41-2.27.34-.87.51-1.8.51-2.8v-.05c0-1-.17-1.94-.51-2.81s-.82-1.64-1.44-2.29c-.62-.65-1.35-1.17-2.19-1.55-.84-.38-1.76-.58-2.76-.58s-1.92.19-2.76.56c-.84.38-1.56.89-2.16,1.54-.6.65-1.07,1.41-1.41,2.28-.34.87-.51,1.8-.51,2.8v.05c0,1,.17,1.94.51,2.81.34.88.82,1.64,1.44,2.29.62.65,1.35,1.17,2.19,1.55.84.38,1.76.58,2.76.58Z"/>
  </g>
</svg>