<?xml version="1.0" encoding="UTF-8"?>
<svg id="Capa_2" data-name="Capa 2" xmlns="http://www.w3.org/2000/svg" viewBox="0 0 89.59 18.1">
  <defs>
    <style>
      .cls-1 {
        fill: #9c9fae;
      }
    </style>
  </defs>
  <g id="Capa_1-2" data-name="Capa 1">
    <path class="cls-1" d="M7.15,18.05c-1.4,0-2.68-.23-3.84-.69-1.16-.46-2.26-1.16-3.31-2.11l1.23-1.45c.92.83,1.84,1.45,2.77,1.86.93.41,2.01.61,3.23.61s2.13-.28,2.84-.84c.71-.56,1.06-1.27,1.06-2.14v-.05c0-.4-.07-.76-.2-1.09-.13-.33-.37-.62-.7-.89-.33-.27-.8-.51-1.39-.72-.59-.22-1.35-.42-2.27-.62-1-.22-1.88-.47-2.62-.75-.74-.28-1.36-.62-1.84-1.03-.48-.4-.84-.87-1.08-1.4-.23-.53-.35-1.16-.35-1.88v-.05c0-.68.14-1.32.43-1.9.28-.58.68-1.09,1.2-1.51s1.12-.76,1.83-1c.7-.24,1.47-.36,2.3-.36,1.28,0,2.4.18,3.36.54.96.36,1.89.9,2.79,1.61l-1.15,1.52c-.82-.67-1.64-1.15-2.46-1.45-.83-.3-1.69-.45-2.59-.45-1.15,0-2.06.27-2.73.81-.67.54-1,1.21-1,2.01v.05c0,.42.07.79.2,1.11.13.33.38.62.72.9.35.28.83.53,1.45.75.62.23,1.41.44,2.38.64,1.95.42,3.39,1.01,4.31,1.79.92.77,1.39,1.83,1.39,3.16v.05c0,.75-.15,1.43-.44,2.04-.3.61-.7,1.13-1.23,1.56-.52.43-1.15.77-1.88,1-.73.23-1.53.35-2.4.35Z"/>
    <path class="cls-1" d="M20.12,2.12h-5.88V.3h13.73v1.83h-5.88v15.67h-1.98V2.12Z"/>
    <path class="cls-1" d="M37.45,18.08c-1.08,0-2.07-.16-2.96-.49-.89-.32-1.66-.81-2.3-1.45s-1.14-1.44-1.49-2.39-.52-2.04-.52-3.28V.3h1.97v10.05c0,1.9.47,3.36,1.41,4.38.94,1.02,2.25,1.53,3.94,1.53s2.9-.48,3.85-1.45,1.42-2.41,1.42-4.33V.3h1.98v10.03c0,1.27-.17,2.38-.52,3.35s-.85,1.78-1.49,2.42c-.64.65-1.41,1.14-2.3,1.48-.89.33-1.89.5-2.99.5Z"/>
    <path class="cls-1" d="M48.17.3h6.07c1.38,0,2.64.22,3.78.66,1.13.44,2.11,1.05,2.94,1.84.82.78,1.46,1.7,1.91,2.76.45,1.06.68,2.2.68,3.44v.05c0,1.23-.23,2.38-.68,3.45-.45,1.07-1.09,1.99-1.91,2.77-.83.78-1.8,1.4-2.94,1.85-1.13.45-2.39.67-3.78.67h-6.07V.3ZM54.25,15.97c1.1,0,2.1-.17,3-.52.9-.35,1.66-.83,2.29-1.45s1.11-1.35,1.45-2.19c.34-.84.51-1.75.51-2.71v-.05c0-.97-.17-1.87-.51-2.71-.34-.84-.83-1.57-1.45-2.2s-1.39-1.12-2.29-1.48c-.9-.36-1.9-.54-3-.54h-4.1v13.85h4.1Z"/>
    <path class="cls-1" d="M66.65.3h1.98v17.5h-1.98V.3Z"/>
    <path class="cls-1" d="M80.62,18.1c-1.33,0-2.55-.24-3.64-.72-1.09-.48-2.03-1.14-2.81-1.96-.78-.83-1.39-1.78-1.81-2.88-.42-1.09-.64-2.24-.64-3.44v-.05c0-1.2.22-2.35.65-3.45.43-1.1,1.04-2.06,1.82-2.89.78-.82,1.73-1.48,2.83-1.97,1.1-.49,2.32-.74,3.65-.74s2.55.24,3.64.72c1.09.48,2.03,1.14,2.81,1.96.78.83,1.39,1.78,1.81,2.88.42,1.09.64,2.24.64,3.44.02.02.02.03,0,.05,0,1.2-.22,2.35-.65,3.45-.43,1.1-1.04,2.06-1.82,2.89-.78.82-1.73,1.48-2.83,1.97s-2.32.74-3.65.74ZM80.67,16.27c1,0,1.92-.19,2.76-.56.84-.38,1.56-.89,2.16-1.54.6-.65,1.07-1.41,1.41-2.28.34-.87.51-1.8.51-2.8v-.05c0-1-.17-1.94-.51-2.81s-.82-1.64-1.44-2.29c-.62-.65-1.35-1.17-2.19-1.55-.84-.38-1.76-.57-2.76-.57s-1.92.19-2.76.56c-.84.38-1.56.89-2.16,1.54-.6.65-1.07,1.41-1.41,2.28-.34.87-.51,1.8-.51,2.8v.05c0,1,.17,1.94.51,2.81.34.88.82,1.64,1.44,2.29.62.65,1.35,1.17,2.19,1.55.84.38,1.76.57,2.76.57Z"/>
  </g>
</svg>