<?xml version="1.0" encoding="UTF-8"?>
<svg id="Capa_2" data-name="Capa 2" xmlns="http://www.w3.org/2000/svg" viewBox="0 0 1469.11 367.62">
  <defs>
    <style>
      .cls-1 {
        fill: #9c9fae;
      }
    </style>
  </defs>
  <g id="Capa_1-2" data-name="Capa 1">
    <g>
      <path class="cls-1" d="M0,194.02v-.24c0-23.77,17.89-43.46,42.5-43.46,15.25,0,24.49,5.28,32.78,13.33l-6.48,6.96c-7.2-6.72-14.89-11.53-26.41-11.53-18.61,0-32.54,15.13-32.54,34.46v.24c0,19.45,13.93,34.7,32.54,34.7,11.53,0,19.09-4.44,27.13-12.13l6.24,6.12c-8.64,8.88-18.49,14.77-33.62,14.77-24.25,0-42.14-19.09-42.14-43.22Z"/>
      <path class="cls-1" d="M115.61,151.16h8.88l38.3,84.64h-10.2l-9.84-22.21h-45.74l-9.96,22.21h-9.72l38.3-84.64ZM139.02,205.06l-19.09-42.86-19.21,42.86h38.3Z"/>
      <path class="cls-1" d="M181.99,160.52h-28.33v-8.76h66.15v8.76h-28.33v75.28h-9.48v-75.28Z"/>
      <path class="cls-1" d="M228.81,151.76h60.75v8.64h-51.26v28.69h45.86v8.64h-45.86v29.41h51.86v8.64h-61.35v-84.04Z"/>
      <path class="cls-1" d="M300.84,151.76h29.17c26.41,0,44.66,18.13,44.66,41.78v.24c0,23.65-18.25,42.02-44.66,42.02h-29.17v-84.04ZM310.32,160.52v66.51h19.69c21.25,0,34.82-14.29,34.82-33.02v-.24c0-18.61-13.57-33.26-34.82-33.26h-19.69Z"/>
      <path class="cls-1" d="M386.44,151.76h36.14c10.44,0,18.61,3.12,23.89,8.4,4.2,4.2,6.48,9.84,6.48,16.57v.24c0,13.93-9.6,22.21-22.81,24.49l25.81,34.34h-11.65l-24.37-32.66h-24.01v32.66h-9.48v-84.04ZM421.73,194.62c12.49,0,21.61-6.48,21.61-17.29v-.24c0-10.44-7.92-16.57-21.49-16.57h-25.93v34.1h25.81Z"/>
      <path class="cls-1" d="M496.04,151.16h8.88l38.3,84.64h-10.2l-9.84-22.21h-45.74l-9.96,22.21h-9.72l38.3-84.64ZM519.45,205.06l-19.09-42.86-19.21,42.86h38.3Z"/>
      <path class="cls-1" d="M600.96,160.52h-28.33v-8.76h66.15v8.76h-28.33v75.28h-9.48v-75.28Z"/>
      <path class="cls-1" d="M647.66,151.76h36.14c10.44,0,18.61,3.12,23.89,8.4,4.2,4.2,6.48,9.84,6.48,16.57v.24c0,13.93-9.6,22.21-22.81,24.49l25.81,34.34h-11.65l-24.37-32.66h-24.01v32.66h-9.48v-84.04ZM682.95,194.62c12.49,0,21.61-6.48,21.61-17.29v-.24c0-10.44-7.92-16.57-21.49-16.57h-25.93v34.1h25.81Z"/>
      <path class="cls-1" d="M727.01,151.76h9.48v84.04h-9.48v-84.04Z"/>
      <path class="cls-1" d="M749.1,194.02v-.24c0-23.05,16.93-43.46,42.14-43.46,14.17,0,22.93,4.08,31.33,11.17l-6.12,7.2c-6.36-5.64-13.81-9.6-25.57-9.6-18.61,0-31.94,15.73-31.94,34.46v.24c0,20.05,12.85,34.94,33.26,34.94,9.6,0,18.49-3.72,24.25-8.4v-20.89h-25.57v-8.52h34.7v33.5c-7.8,7.08-19.45,12.85-33.74,12.85-26.41,0-42.74-19.21-42.74-43.22Z"/>
      <path class="cls-1" d="M834.81,194.02v-.24c0-23.17,17.41-43.46,42.98-43.46s42.74,20.05,42.74,43.22v.24c0,23.17-17.41,43.46-42.98,43.46s-42.74-20.05-42.74-43.22ZM910.69,194.02v-.24c0-19.09-13.93-34.7-33.14-34.7s-32.9,15.37-32.9,34.46v.24c0,19.09,13.93,34.7,33.14,34.7s32.9-15.37,32.9-34.46Z"/>
    </g>
    <g>
      <path class="cls-1" d="M2.72,21.01h29.17c26.41,0,44.66,18.13,44.66,41.78v.24c0,23.65-18.25,42.02-44.66,42.02H2.72V21.01ZM12.21,29.77v66.51h19.69c21.25,0,34.82-14.29,34.82-33.02v-.24c0-18.61-13.57-33.26-34.82-33.26H12.21Z"/>
      <path class="cls-1" d="M89.04,21.01h9.48v84.04h-9.48V21.01Z"/>
      <path class="cls-1" d="M109.32,92.8l5.88-6.96c8.76,8.04,17.17,11.89,28.81,11.89s18.73-6,18.73-14.29v-.24c0-7.8-4.2-12.13-21.85-15.97-19.33-4.2-28.21-10.44-28.21-24.25v-.24c0-13.09,11.65-22.93,27.61-22.93,12.37,0,20.89,3.48,29.53,10.32l-5.52,7.32c-7.8-6.36-15.61-9.12-24.25-9.12-11.04,0-17.89,5.88-17.89,13.57v.24c0,7.92,4.2,12.49,22.81,16.33,18.73,4.2,27.37,10.92,27.37,23.77v.24c0,14.41-12.01,23.77-28.69,23.77-13.45,0-24.25-4.32-34.34-13.45Z"/>
      <path class="cls-1" d="M183.27,21.01h60.75v8.64h-51.26v28.69h45.86v8.64h-45.86v29.41h51.86v8.64h-61.35V21.01Z"/>
      <path class="cls-1" d="M255.3,21.01h8.88l52.94,67.35V21.01h9.24v84.04h-7.56l-54.27-68.91v68.91h-9.24V21.01ZM290.36,11.17c-2.4-.96-4.92-2.04-6.84-2.04-3.24,0-4.44,1.56-6.24,5.76l-5.88-1.68c2.4-8.28,5.64-12.25,11.29-12.25,2.88,0,6,1.32,9.24,2.64,2.52.96,5.04,2.04,6.84,2.04,3.24,0,4.44-1.68,6.24-5.64l5.88,1.68c-2.4,8.28-5.64,12.13-11.29,12.13-2.76,0-6-1.32-9.24-2.64Z"/>
      <path class="cls-1" d="M338.14,63.27v-.24c0-23.17,17.41-43.46,42.98-43.46s42.74,20.05,42.74,43.22v.24c0,23.17-17.41,43.46-42.98,43.46s-42.74-20.05-42.74-43.22ZM414.01,63.27v-.24c0-19.09-13.93-34.7-33.14-34.7s-32.9,15.37-32.9,34.46v.24c0,19.09,13.93,34.7,33.14,34.7s32.9-15.37,32.9-34.46Z"/>
      <path class="cls-1" d="M457.82,92.8l5.88-6.96c8.76,8.04,17.17,11.89,28.81,11.89s18.73-6,18.73-14.29v-.24c0-7.8-4.2-12.13-21.85-15.97-19.33-4.2-28.21-10.44-28.21-24.25v-.24c0-13.09,11.65-22.93,27.61-22.93,12.37,0,20.89,3.48,29.53,10.32l-5.52,7.32c-7.8-6.36-15.61-9.12-24.25-9.12-11.04,0-17.89,5.88-17.89,13.57v.24c0,7.92,4.2,12.49,22.81,16.33,18.73,4.2,27.37,10.92,27.37,23.77v.24c0,14.41-12.01,23.77-28.69,23.77-13.45,0-24.25-4.32-34.34-13.45Z"/>
      <path class="cls-1" d="M528.05,63.27v-.24c0-23.17,17.41-43.46,42.98-43.46s42.74,20.05,42.74,43.22v.24c0,23.17-17.41,43.46-42.98,43.46s-42.74-20.05-42.74-43.22ZM603.93,63.27v-.24c0-19.09-13.93-34.7-33.14-34.7s-32.9,15.37-32.9,34.46v.24c0,19.09,13.93,34.7,33.14,34.7s32.9-15.37,32.9-34.46Z"/>
      <path class="cls-1" d="M621.81,63.27v-.24c0-23.77,17.89-43.46,42.5-43.46,15.25,0,24.49,5.28,32.78,13.33l-6.48,6.96c-7.2-6.72-14.89-11.53-26.41-11.53-18.61,0-32.54,15.13-32.54,34.46v.24c0,19.45,13.93,34.7,32.54,34.7,11.53,0,19.09-4.44,27.13-12.13l6.24,6.12c-8.64,8.88-18.49,14.77-33.62,14.77-24.25,0-42.14-19.09-42.14-43.22Z"/>
      <path class="cls-1" d="M707.16,21.01h9.48v84.04h-9.48V21.01Z"/>
      <path class="cls-1" d="M729.25,63.27v-.24c0-23.17,17.41-43.46,42.98-43.46s42.74,20.05,42.74,43.22v.24c0,23.17-17.41,43.46-42.98,43.46s-42.74-20.05-42.74-43.22ZM805.12,63.27v-.24c0-19.09-13.93-34.7-33.14-34.7s-32.9,15.37-32.9,34.46v.24c0,19.09,13.93,34.7,33.14,34.7s32.9-15.37,32.9-34.46Z"/>
      <path class="cls-1" d="M852.9,20.41h8.88l38.3,84.64h-10.2l-9.84-22.21h-45.74l-9.96,22.21h-9.72l38.3-84.64ZM876.31,74.31l-19.09-42.86-19.21,42.86h38.3Z"/>
      <path class="cls-1" d="M908.36,21.01h9.6l30.61,45.86,30.61-45.86h9.6v84.04h-9.48V36.98l-30.61,45.02h-.48l-30.62-44.9v67.95h-9.24V21.01Z"/>
      <path class="cls-1" d="M1004.16,21.01h35.78c9.6,0,17.17,2.76,21.97,7.44,3.6,3.72,5.4,8.28,5.4,13.45v.24c0,10.93-6.72,16.57-13.33,19.45,9.96,2.88,18.01,8.88,18.01,20.29v.24c0,14.41-12.13,22.93-30.5,22.93h-37.34V21.01ZM1057.71,43.22c0-8.28-6.6-13.69-18.61-13.69h-25.57v28.93h24.85c11.53,0,19.33-5.04,19.33-15.01v-.24ZM1062.39,81.28c0-9.12-7.56-14.41-22.33-14.41h-26.53v29.65h28.21c12.85,0,20.65-5.52,20.65-15.01v-.24Z"/>
      <path class="cls-1" d="M1083.39,21.01h9.48v84.04h-9.48V21.01Z"/>
      <path class="cls-1" d="M1109.2,21.01h60.75v8.64h-51.26v28.69h45.86v8.64h-45.86v29.41h51.86v8.64h-61.35V21.01Z"/>
      <path class="cls-1" d="M1181.35,21.01h8.88l52.95,67.35V21.01h9.24v84.04h-7.56l-54.27-68.91v68.91h-9.24V21.01Z"/>
      <path class="cls-1" d="M1289.75,29.77h-28.33v-8.76h66.15v8.76h-28.33v75.28h-9.48V29.77Z"/>
      <path class="cls-1" d="M1356.86,20.41h8.88l38.3,84.64h-10.21l-9.84-22.21h-45.74l-9.96,22.21h-9.72l38.3-84.64ZM1380.27,74.31l-19.09-42.86-19.21,42.86h38.3Z"/>
      <path class="cls-1" d="M1412.32,21.01h9.48v75.28h47.3v8.76h-56.79V21.01Z"/>
    </g>
    <g>
      <path class="cls-1" d="M3.72,282.26h60.39v8.76H13.21v30.01h45.5v8.64H13.21v36.62H3.72v-84.04Z"/>
      <path class="cls-1" d="M95.68,281.66h8.88l38.3,84.64h-10.2l-9.84-22.21h-45.74l-9.96,22.21h-9.72l38.3-84.64ZM119.09,335.57l-19.09-42.86-19.21,42.86h38.3Z"/>
      <path class="cls-1" d="M151.14,282.26h29.17c26.41,0,44.66,18.13,44.66,41.78v.24c0,23.65-18.25,42.02-44.66,42.02h-29.17v-84.04ZM160.62,291.03v66.51h19.69c21.25,0,34.82-14.29,34.82-33.02v-.24c0-18.61-13.57-33.26-34.82-33.26h-19.69Z"/>
      <path class="cls-1" d="M235.29,331.13v-48.86h9.48v48.26c0,18.25,9.48,28.33,25.69,28.33s25.33-9.36,25.33-27.73v-48.86h9.48v48.14c0,24.61-14.05,37.22-35.06,37.22s-34.94-12.73-34.94-36.5Z"/>
      <path class="cls-1" d="M345.86,331.13v-48.86h9.48v48.26c0,18.25,9.48,28.33,25.69,28.33s25.33-9.36,25.33-27.73v-48.86h9.48v48.14c0,24.61-14.05,37.22-35.06,37.22s-34.94-12.73-34.94-36.5Z"/>
      <path class="cls-1" d="M430.01,282.26h35.78c9.6,0,17.17,2.76,21.97,7.44,3.6,3.72,5.4,8.28,5.4,13.45v.24c0,10.92-6.72,16.57-13.33,19.45,9.96,2.88,18.01,8.88,18.01,20.29v.24c0,14.41-12.13,22.93-30.49,22.93h-37.34v-84.04ZM483.55,304.47c0-8.28-6.6-13.69-18.61-13.69h-25.57v28.93h24.85c11.53,0,19.33-5.04,19.33-15.01v-.24ZM488.24,342.53c0-9.12-7.56-14.41-22.33-14.41h-26.53v29.65h28.21c12.85,0,20.65-5.52,20.65-15.01v-.24Z"/>
      <path class="cls-1" d="M539.49,281.66h8.88l38.3,84.64h-10.2l-9.84-22.21h-45.74l-9.96,22.21h-9.72l38.3-84.64ZM562.91,335.57l-19.09-42.86-19.21,42.86h38.3Z"/>
    </g>
  </g>
</svg>